<svg width="70" height="14" viewBox="0 0 70 14" fill="none" xmlns="http://www.w3.org/2000/svg">
<path d="M8.892 4.464C8.856 4.404 8.73 4.314 8.514 4.194C8.298 4.062 8.028 3.924 7.704 3.78C7.38 3.636 7.026 3.51 6.642 3.402C6.258 3.294 5.874 3.24 5.49 3.24C4.986 3.24 4.596 3.33 4.32 3.51C4.044 3.678 3.906 3.942 3.906 4.302C3.906 4.59 4.008 4.818 4.212 4.986C4.428 5.154 4.734 5.304 5.13 5.436C5.526 5.556 6.012 5.7 6.588 5.868C7.404 6.084 8.112 6.348 8.712 6.66C9.312 6.96 9.768 7.35 10.08 7.83C10.404 8.31 10.566 8.946 10.566 9.738C10.566 10.458 10.434 11.07 10.17 11.574C9.906 12.066 9.546 12.468 9.09 12.78C8.646 13.08 8.136 13.302 7.56 13.446C6.984 13.578 6.39 13.644 5.778 13.644C5.154 13.644 4.512 13.584 3.852 13.464C3.204 13.332 2.58 13.152 1.98 12.924C1.38 12.684 0.828 12.396 0.324 12.06L1.62 9.486C1.668 9.546 1.824 9.66 2.088 9.828C2.352 9.984 2.676 10.152 3.06 10.332C3.456 10.5 3.894 10.65 4.374 10.782C4.854 10.914 5.34 10.98 5.832 10.98C6.36 10.98 6.75 10.896 7.002 10.728C7.266 10.56 7.398 10.326 7.398 10.026C7.398 9.702 7.26 9.45 6.984 9.27C6.72 9.09 6.354 8.928 5.886 8.784C5.43 8.64 4.902 8.478 4.302 8.298C3.522 8.058 2.874 7.788 2.358 7.488C1.854 7.188 1.476 6.822 1.224 6.39C0.984 5.958 0.864 5.418 0.864 4.77C0.864 3.87 1.074 3.114 1.494 2.502C1.926 1.878 2.502 1.41 3.222 1.098C3.942 0.774 4.728 0.612 5.58 0.612C6.18 0.612 6.756 0.683999 7.308 0.827999C7.872 0.971999 8.394 1.152 8.874 1.368C9.366 1.584 9.804 1.8 10.188 2.016L8.892 4.464ZM22.5762 3.312H18.6882V13.5H15.7362V3.312H11.8302V0.719999H22.5762V3.312ZM30.0479 13.608C29.0279 13.608 28.1579 13.44 27.4379 13.104C26.7179 12.756 26.1299 12.288 25.6739 11.7C25.2299 11.1 24.8999 10.422 24.6839 9.666C24.4799 8.898 24.3779 8.094 24.3779 7.254V0.719999H27.3299V7.254C27.3299 7.734 27.3779 8.202 27.4739 8.658C27.5699 9.102 27.7259 9.498 27.9419 9.846C28.1579 10.194 28.4339 10.47 28.7699 10.674C29.1179 10.878 29.5439 10.98 30.0479 10.98C30.5639 10.98 30.9959 10.878 31.3439 10.674C31.6919 10.458 31.9679 10.176 32.1719 9.828C32.3759 9.468 32.5259 9.066 32.6219 8.622C32.7179 8.178 32.7659 7.722 32.7659 7.254V0.719999H35.7179V7.254C35.7179 8.142 35.6039 8.97 35.3759 9.738C35.1599 10.506 34.8239 11.184 34.3679 11.772C33.9119 12.348 33.3239 12.798 32.6039 13.122C31.8959 13.446 31.0439 13.608 30.0479 13.608ZM38.5452 13.5V0.719999H43.3152C44.7192 0.719999 45.8892 1.008 46.8252 1.584C47.7732 2.148 48.4872 2.916 48.9672 3.888C49.4472 4.848 49.6872 5.916 49.6872 7.092C49.6872 8.388 49.4232 9.516 48.8952 10.476C48.3672 11.436 47.6232 12.18 46.6632 12.708C45.7152 13.236 44.5992 13.5 43.3152 13.5H38.5452ZM46.6812 7.092C46.6812 6.348 46.5492 5.694 46.2852 5.13C46.0212 4.554 45.6372 4.11 45.1332 3.798C44.6292 3.474 44.0232 3.312 43.3152 3.312H41.4972V10.908H43.3152C44.0352 10.908 44.6412 10.746 45.1332 10.422C45.6372 10.086 46.0212 9.63 46.2852 9.054C46.5492 8.466 46.6812 7.812 46.6812 7.092ZM51.9699 13.5V0.719999H54.9219V13.5H51.9699ZM63.5044 13.608C62.5444 13.608 61.6744 13.428 60.8944 13.068C60.1264 12.696 59.4604 12.204 58.8964 11.592C58.3444 10.968 57.9184 10.272 57.6184 9.504C57.3184 8.724 57.1684 7.92 57.1684 7.092C57.1684 6.24 57.3244 5.43 57.6364 4.662C57.9604 3.894 58.4044 3.21 58.9684 2.61C59.5444 1.998 60.2224 1.518 61.0024 1.17C61.7824 0.821999 62.6344 0.647999 63.5584 0.647999C64.5064 0.647999 65.3644 0.833999 66.1324 1.206C66.9124 1.566 67.5784 2.058 68.1304 2.682C68.6944 3.306 69.1264 4.008 69.4264 4.788C69.7264 5.556 69.8764 6.342 69.8764 7.146C69.8764 7.998 69.7204 8.808 69.4084 9.576C69.0964 10.344 68.6524 11.034 68.0764 11.646C67.5004 12.246 66.8224 12.726 66.0424 13.086C65.2744 13.434 64.4284 13.608 63.5044 13.608ZM60.1744 7.128C60.1744 7.62 60.2464 8.1 60.3904 8.568C60.5344 9.024 60.7444 9.432 61.0204 9.792C61.3084 10.152 61.6624 10.44 62.0824 10.656C62.5024 10.872 62.9824 10.98 63.5224 10.98C64.0864 10.98 64.5784 10.872 64.9984 10.656C65.4184 10.428 65.7664 10.128 66.0424 9.756C66.3184 9.384 66.5224 8.97 66.6544 8.514C66.7984 8.046 66.8704 7.572 66.8704 7.092C66.8704 6.6 66.7984 6.126 66.6544 5.67C66.5104 5.214 66.2944 4.806 66.0064 4.446C65.7184 4.074 65.3644 3.786 64.9444 3.582C64.5244 3.378 64.0504 3.276 63.5224 3.276C62.9584 3.276 62.4664 3.384 62.0464 3.6C61.6384 3.816 61.2904 4.11 61.0024 4.482C60.7264 4.842 60.5164 5.256 60.3724 5.724C60.2404 6.18 60.1744 6.648 60.1744 7.128Z" fill="#2E2F42"/>
</svg>
