<svg width="44" height="14" viewBox="0 0 44 14" fill="none" xmlns="http://www.w3.org/2000/svg">
<path d="M6.436 0.737999H9.154L10.486 4.824L11.818 0.737999H14.554L12.376 6.678L13.672 10.08L16.876 0.719999H20.098L15.112 13.5H12.556L10.486 8.496L8.434 13.5H5.86L0.892 0.719999H4.096L7.318 10.08L8.578 6.678L6.436 0.737999ZM30.7304 10.908V13.5H21.7484V0.719999H30.5684V3.312H24.7004V5.796H29.7404V8.19H24.7004V10.908H30.7304ZM43.6298 10.224C43.6298 10.956 43.4318 11.568 43.0358 12.06C42.6518 12.54 42.1298 12.9 41.4698 13.14C40.8098 13.38 40.0838 13.5 39.2918 13.5H33.0638V0.719999H40.1738C40.7738 0.719999 41.2898 0.881999 41.7218 1.206C42.1658 1.518 42.5018 1.926 42.7298 2.43C42.9698 2.934 43.0898 3.456 43.0898 3.996C43.0898 4.596 42.9338 5.172 42.6218 5.724C42.3098 6.264 41.8538 6.672 41.2538 6.948C41.9858 7.164 42.5618 7.548 42.9818 8.1C43.4138 8.652 43.6298 9.36 43.6298 10.224ZM40.6238 9.63C40.6238 9.354 40.5698 9.114 40.4618 8.91C40.3538 8.694 40.2098 8.526 40.0298 8.406C39.8618 8.274 39.6578 8.208 39.4178 8.208H36.0158V10.998H39.2918C39.5438 10.998 39.7658 10.938 39.9578 10.818C40.1618 10.698 40.3238 10.536 40.4438 10.332C40.5638 10.128 40.6238 9.894 40.6238 9.63ZM36.0158 3.24V5.886H38.9138C39.1298 5.886 39.3278 5.838 39.5078 5.742C39.6998 5.646 39.8558 5.502 39.9758 5.31C40.0958 5.106 40.1558 4.854 40.1558 4.554C40.1558 4.266 40.1018 4.026 39.9938 3.834C39.8978 3.642 39.7658 3.498 39.5978 3.402C39.4298 3.294 39.2378 3.24 39.0218 3.24H36.0158Z" fill="#4D5AE5"/>
</svg>
